<svg width="12" height="12" viewBox="0 0 12 12" fill="none" xmlns="http://www.w3.org/2000/svg">
<mask id="mask0" mask-type="alpha" maskUnits="userSpaceOnUse" x="0" y="0" width="12" height="12">
<path fill-rule="evenodd" clip-rule="evenodd" d="M0.00195312 0.0117188H11.9885V12.0001H0.00195312V0.0117188Z" fill="white"/>
</mask>
<g mask="url(#mask0)">
<path fill-rule="evenodd" clip-rule="evenodd" d="M5.99567 0.0117188H5.99268C2.68765 0.0117188 0 2.70007 0 6.00589C0 7.31714 0.422576 8.53245 1.14111 9.51923L0.394098 11.746L2.69819 11.0095C3.64595 11.6374 4.77656 12.0001 5.99567 12.0001C9.30067 12.0001 11.9884 9.31093 11.9884 6.00589C11.9884 2.70086 9.30067 0.0117188 5.99567 0.0117188ZM9.48351 8.4762C9.33887 8.88458 8.76495 9.22324 8.30716 9.32211C7.9939 9.38878 7.58482 9.44205 6.20775 8.87108C4.44615 8.14134 3.31177 6.35129 3.2234 6.23512C3.13867 6.11896 2.51157 5.28733 2.51157 4.4271C2.51157 3.56703 2.94831 3.14811 3.12451 2.9684C3.269 2.82068 3.50807 2.75334 3.7373 2.75334C3.81152 2.75334 3.87817 2.757 3.9382 2.76007C4.11424 2.7675 4.20263 2.77804 4.3188 3.05597C4.46341 3.40444 4.81554 4.26455 4.85751 4.35303C4.90027 4.44142 4.94292 4.56121 4.88301 4.67738C4.82675 4.79732 4.77738 4.85047 4.68887 4.95235C4.60051 5.05432 4.51657 5.13218 4.42821 5.24158C4.34725 5.3367 4.25579 5.4387 4.35779 5.61475C4.45964 5.78706 4.81177 6.3618 5.33025 6.82333C5.99941 7.419 6.54181 7.60936 6.73595 7.6902C6.88057 7.7502 7.05287 7.73591 7.1585 7.62352C7.2926 7.47891 7.45826 7.23914 7.62679 7.00318C7.74673 6.83387 7.89799 6.81282 8.05689 6.87273C8.21868 6.92899 9.0751 7.35235 9.25118 7.43992C9.42726 7.5284 9.5434 7.57037 9.58616 7.64457C9.62813 7.71865 9.62813 8.06714 9.48351 8.4762Z" fill="#39396A"/>
</g>
</svg>
